<?xml version="1.0" encoding="utf-8"?>
<!-- Generator: Adobe Illustrator 21.1.0, SVG Export Plug-In . SVG Version: 6.00 Build 0)  -->
<svg version="1.1" id="Ebene_1" xmlns="http://www.w3.org/2000/svg" xmlns:xlink="http://www.w3.org/1999/xlink" x="0px" y="0px"
	 viewBox="0 0 595.3 263.2" style="enable-background:new 0 0 595.3 263.2;" xml:space="preserve">
<style type="text/css">
	.st0{fill:#C9CED1;}
	.st1{fill:#66676C;}
	.st2{fill:#224D8F;}
</style>
<path class="st0" d="M442,163.1V95.8l7.1,0.4c29.9,0,49.5-17.5,49.5-48C498.6-4.4,450.1,0,443.2,0h-33.5v163.1H442L442,163.1z
	 M442,26.6h6.1c13.8,0,18.4,9.5,18.4,21.2c0,16.7-8.9,22.5-24.4,21.9V26.6H442z"/>
<polygon class="st0" points="515,0 515,163.1 580.4,163.1 580.4,132.8 547.3,132.8 547.3,96.1 576,96.1 576,65.8 547.3,65.8 
	547.3,30.3 579.9,30.3 579.9,0 "/>
<rect x="305.2" class="st1" width="6.8" height="30.3"/>
<g>
	<path class="st1" d="M466.4,47.8c0-11.7-4.5-21.2-18.4-21.2h-6l0,0c13.3,0.3,17.7,9.7,17.7,21.2c0,14.1-6.3,20.4-17.7,21.7v0.2
		C457.6,70.3,466.4,64.5,466.4,47.8z"/>
	<rect x="403" class="st1" width="6.8" height="163.1"/>
</g>
<rect x="508.2" class="st1" width="6.8" height="163.1"/>
<g>
	<path class="st2" d="M46.1,144.1c0-3.2-2.5-5.8-5.5-5.8s-5.5,2.6-5.5,5.8V185c0,3.2,2.5,5.8,5.5,5.8s5.5-2.6,5.5-5.8v-17.8l0,0
		c0.1,0.1,0.2,0.3,0.4,0.4l20.1,21.3c2.2,2.3,5.8,2.5,8,0.4s2.1-5.7-0.1-8l-17.9-18.4l15.3-15.2c2.2-2.3,2.2-5.9,0.1-8
		c-2.2-2.1-5.8-1.9-8,0.4l-17.8,19v-15H46.1z"/>
	<path class="st2" d="M14.6,165c0,21.8,17.6,39.4,39.4,39.4h40.5v-78.8H54C32.3,125.6,14.6,143.2,14.6,165L14.6,165z M86.9,165
		c0,18.2-14.7,32.9-32.9,32.9S21.1,183.2,21.1,165s14.7-32.9,32.9-32.9S86.9,146.8,86.9,165L86.9,165z"/>
</g>
<g>
	<path class="st2" d="M348.3,125.6H98.6v78.8h249.7c21.8,0,39.4-17.6,39.4-39.4C387.7,143.2,370.1,125.6,348.3,125.6z M137,186.4
		c-1.8,1.7-4.7,1.6-6.5-0.3l-16.4-17.4c-0.1-0.1-0.2-0.2-0.3-0.3l0,0v14.5c0,2.6-2,4.7-4.5,4.7s-4.5-2.1-4.5-4.7v-33.4
		c0-2.6,2-4.7,4.5-4.7s4.5,2.1,4.5,4.7v12.2l14.5-15.5c1.8-1.9,4.7-2,6.5-0.3s1.7,4.6-0.1,6.5l-12.2,12.3l14.4,15.2
		C138.8,181.8,138.8,184.7,137,186.4z M169.7,186.8c-1.9,1.6-4.8,1.3-6.5-0.7l-12.8-14.7c-0.1-0.1-0.2-0.2-0.3-0.3V183
		c0,2.6-2,4.7-4.5,4.7s-4.5-2.1-4.5-4.7v-33.4c0-2.6,2-4.7,4.5-4.7c0,0,9.8,0.2,11.5,0.2c1.8,0,13.6-0.6,13.6,12.8
		c0,8.7-5.9,11.1-10.1,11.7l9.3,10.7C171.7,182.2,171.6,185.2,169.7,186.8z M207.1,187.5c-4,1.5-5.4-1.7-5.7-2.6
		c-0.1-0.2-0.8-2.5-1.9-5.7h-16.8l-1.8,5.7c0,0-1.4,4.2-6,2.5c-4.6-1.8-1.6-7.6-1.6-7.6l11.7-31.7c0,0,1.2-4,6.3-4s5.9,4.6,5.9,4.6
		l12.1,33C209.4,181.7,211.1,186,207.1,187.5z M221.4,182.8c0,2.6-2,4.7-4.5,4.7s-4.5-2.1-4.5-4.7v-33.4c0-2.6,2-4.7,4.5-4.7
		s4.5,2.1,4.5,4.7V182.8z M242.5,187.5L242.5,187.5H233c-0.5,0-1.5,0-2,0c-2.5,0-4.5-2.1-4.5-4.7v-33.4c0-2.6,2-4.7,4.5-4.7h12.4
		c0,0,10.5-0.2,10.5,10.7c0,6-3.7,8.4-7,9.3c4.6,0.1,10.6,1.9,10.6,10.5C257.5,189.2,242.5,187.5,242.5,187.5z M296.1,170.9
		c0,0-0.4,17-18.4,17S259.8,171,259.8,171v-22.2c0,0,0.5-4.4,4.4-4.4c4,0,4.4,3.3,4.4,4.4c0,1.1,0,22,0,22s0.1,9,9.2,9s9.1-9,9.1-9
		v-22c0,0-0.1-4.5,4.4-4.5s4.6,3.8,4.6,4.5C296.1,149.5,296.1,170.9,296.1,170.9z M329.8,186.8c-1.9,1.6-4.8,1.3-6.5-0.7l-12.8-14.7
		c-0.1-0.1-0.2-0.2-0.3-0.3V183c0,2.6-2,4.7-4.5,4.7s-4.5-2.1-4.5-4.7v-33.4c0-2.6,2-4.7,4.5-4.7c0,0,9.8,0.2,11.5,0.2
		c1.8,0,13.6-0.6,13.6,12.8c0,8.7-5.9,11.1-10.1,11.7l9.3,10.7C331.8,182.2,331.6,185.2,329.8,186.8z M352.7,188.3
		c-11.7,0-21.1-9.9-21.1-22.1c0-12.2,9.5-22.1,21.1-22.1c0,0,10,0.8,15.2,5.9c1.3,1.3,1.2,4.2,0.1,5.3c-1.1,1.2-2.8,2.3-5.4,0.9
		c-2.6-1.4-5.1-4-10.4-4s-11.1,4.8-11.1,13.5s4.4,13.9,11.4,13.9c6.9,0,9.8-4.4,9.8-9.2h-6.4c0,0-3.8,0.5-3.8-3.8s3.2-4.2,4.2-4.2
		c0.9,0,11.4,0,11.4,0s4.2-0.1,4.2,5.4C371.7,173.4,367.7,188.3,352.7,188.3z"/>
	<path class="st2" d="M245.1,156.8c0-3.4-3.2-4.1-5.2-4.1c-1,0-2.9,0-4.4,0v9h5.2C240.8,161.6,245.1,162,245.1,156.8z"/>
	<path class="st2" d="M185.5,170.6h11.2c-2.7-8.3-5.6-17.2-5.6-17.2L185.5,170.6z"/>
	<path class="st2" d="M157.1,153.3h-7v10.2c1.8,0,5.3,0,6.4,0c1.4,0,5.2-0.4,5.2-5.4C161.7,153.2,157.1,153.3,157.1,153.3z"/>
	<path class="st2" d="M242,169.5h-6.4v10h7.8c0,0,4.9,0.3,4.9-5.2C248.2,168.9,242,169.5,242,169.5z"/>
	<path class="st2" d="M317.1,153.3h-7v10.2c1.8,0,5.3,0,6.4,0c1.4,0,5.2-0.4,5.2-5.4C321.7,153.2,317.1,153.3,317.1,153.3z"/>
</g>
<g>
	<path class="st2" d="M33.2,227.6c-1.3-0.8-2.4-1.1-4-1.1c-9.9,0-12.7,11.9-13.8,19.2c-1.2,7.6-1.6,18,8.2,18c1.4,0,2.7-0.2,4-1
		l0.7-4.2c-1,0.5-1.9,0.7-3,0.7c-6.6,0-5.5-9-4.8-13.8c0.7-4.5,2.3-14.3,9-14.3c1.1,0,2,0.4,2.9,0.9L33.2,227.6L33.2,227.6z"/>
	<path class="st2" d="M37,227l-4,25c-1,6.5-1.2,11.7,6.5,11.7c8.4,0,9.3-6.2,10.1-11l4.1-25.7h-4.8l-4.3,27.1
		c-0.5,3-1.1,5.1-4.5,5.1c-2,0-3.2-1-2.5-5.6l4.2-26.6H37L37,227z"/>
	<path class="st2" d="M70.5,227.7c-1.4-0.9-3.1-1.2-4.9-1.2c-5.4,0-8.8,4.2-9.6,9.3c-1.5,9.5,8.4,11,7.3,18.2c-0.4,2.7-2,5-5,5
		c-1.9,0-3.2-0.8-4.5-1.9L53,262c1.3,1.2,3.1,1.7,5,1.7c5.3,0,9.2-4.4,10-9.5c0.8-4.9-0.7-7.3-3.5-10.6l-3-4c-0.8-1.2-1-2.4-0.7-3.9
		c0.4-2.5,2.4-4.7,5-4.7c1.6,0,2.7,0.6,3.8,1.5L70.5,227.7L70.5,227.7z"/>
	<polygon class="st2" points="73.3,227 72.7,231.2 78.3,231.2 73.2,263.2 78.1,263.2 83.1,231.2 88.6,231.2 89.2,227 	"/>
	<path class="st2" d="M100.5,226.5c-9.3,0-11.3,12.1-12.4,18.6c-1,6.5-2.9,18.6,6.5,18.6c9.3,0,11.3-12.1,12.4-18.6
		S109.9,226.5,100.5,226.5L100.5,226.5z M99.8,231c3.8,0,3.3,6.4,2.1,14.1c-1.2,7.7-2.8,14.1-6.6,14.1c-3.8,0-3.3-6.4-2.1-14.1
		C94.5,237.4,96,231,99.8,231L99.8,231z"/>
	<polygon class="st2" points="116,227 107.3,263.2 111.9,263.2 117.2,238.2 117.3,238.2 118,263.2 121.3,263.2 128.2,243.4 
		129.9,238.2 130,238.2 129.3,243 128.5,249.7 127.3,263.2 132,263.2 134.3,227 130.1,227 124.5,242.9 121.6,251.6 121.3,253.1 
		121.2,253.1 120.2,227 	"/>
	<polygon class="st2" points="136.9,249 136.3,252.6 144.9,252.6 145.5,249 	"/>
	<polygon class="st2" points="153.4,227 147.7,263.2 160.6,263.2 161.3,259 153.1,259 155.1,246.7 162.3,246.7 163,242.6 
		155.8,242.6 157.6,231.2 165.7,231.2 166.3,227 	"/>
	<polygon class="st2" points="172.5,235.4 172.7,235.3 176.7,263.2 181.2,263.2 186.9,227 182.1,227 180,239.9 178.9,254.4 
		178.8,254.5 174.7,227 170.1,227 164.3,263.2 169.1,263.2 171.3,249.9 172.5,237.8 	"/>
	<path class="st2" d="M198.6,244.1l-0.7,4.2h4l-0.3,2c-1.4,8.7-3.6,8.9-5.5,8.9c-2.1,0-4-1.4-2-14c1.4-8.7,2.5-14.1,6.5-14.1
		c3,0,3.3,2.4,3.4,4.8l4.9-1.9c-0.5-4.8-2.5-7.4-7.7-7.4c-8.4,0-10.5,8.6-12.1,18.7c-1.6,10.2-1.9,18.5,6.7,18.5
		c9.7,0,10.6-12.1,11.7-19l0.1-0.6h-9V244.1z"/>
	<polygon class="st2" points="219.7,227 214.9,227 209.1,263.2 213.9,263.2 	"/>
	<polygon class="st2" points="228,235.4 228.1,235.3 232.1,263.2 236.6,263.2 242.4,227 237.6,227 235.5,239.9 234.4,254.4 
		234.2,254.5 230.1,227 225.5,227 219.8,263.2 224.6,263.2 226.7,249.9 227.9,237.8 	"/>
	<polygon class="st2" points="248.2,227 242.5,263.2 255.4,263.2 256.1,259 247.9,259 249.9,246.7 257.1,246.7 257.8,242.6 
		250.6,242.6 252.4,231.2 260.5,231.2 261.1,227 	"/>
	<polygon class="st2" points="264.9,227 259.1,263.2 272.1,263.2 272.7,259 264.6,259 266.6,246.7 273.8,246.7 274.5,242.6 
		267.2,242.6 269,231.2 277.1,231.2 277.8,227 	"/>
	<path class="st2" d="M275.8,263.2h4.8l2.8-17.7h0.1l3.7,17.7h5l-3.9-17.6c4.1-0.7,5.9-5.9,6.5-9.3c1.4-9.1-4-9.3-7.5-9.3h-5.8
		L275.8,263.2L275.8,263.2z M283.8,243l1.9-12h0.8c3.7-0.1,3.6,2.8,3.1,6.2C289,241,287.4,243.3,283.8,243L283.8,243z"/>
	<polygon class="st2" points="301.5,227 295.8,263.2 308.7,263.2 309.4,259 301.3,259 303.2,246.7 310.5,246.7 311.1,242.6 
		303.9,242.6 305.7,231.2 313.8,231.2 314.5,227 	"/>
	<path class="st2" d="M318.2,227l-5.7,36.2h3.3c8.6,0,14.3-0.8,16.9-17.5c2.9-18.4-3.5-18.7-9.1-18.7H318.2L318.2,227z M327.6,245.7
		c-1,6.2-1.8,13.6-9.7,13.4l4.4-28.1C330.6,230.6,328.5,240.2,327.6,245.7L327.6,245.7z"/>
	<polygon class="st2" points="348.2,227 347.2,233.7 352.8,233.7 348.1,263.2 355.3,263.2 360,233.7 365.6,233.7 366.7,227 	"/>
	<path class="st2" d="M371.4,263.2l2.4-14.9l1.6,0.1c6.6,0,11.6-3.9,12.7-10.7c1.8-11.7-9.1-10.7-10.6-10.7H370l-5.7,36.2H371.4
		L371.4,263.2z M376.2,232.9h1.3c3.1,0,3.8,2.1,3.3,4.7c-0.6,3.7-2.8,5-6.2,4.9L376.2,232.9L376.2,232.9z"/>
	<polygon class="st2" points="393.4,227 387.6,263.2 402.1,263.2 403.2,256.5 395.8,256.5 397.1,248.3 403.5,248.3 404.6,241.6 
		398.2,241.6 399.5,233.7 406.7,233.7 407.8,227 	"/>
	<path class="st2" d="M427.6,227L414,263.2h4.7l2.5-7.1h7.2l0.2,7.1h4.9l-2-36.2H427.6L427.6,227z M428.2,252.4h-5.8l5.8-18.4h0.1
		l-0.3,13.2L428.2,252.4L428.2,252.4z"/>
	<polygon class="st2" points="444.8,235.4 444.9,235.3 448.9,263.2 453.4,263.2 459.1,227 454.3,227 452.3,239.9 451.1,254.4 
		451,254.5 446.9,227 442.3,227 436.6,263.2 441.4,263.2 443.5,249.9 444.7,237.8 	"/>
	<path class="st2" d="M465,227l-5.7,36.2h3.3c8.6,0,14.3-0.8,16.9-17.5c2.9-18.4-3.5-18.7-9.1-18.7H465L465,227z M474.4,245.7
		c-1,6.2-1.8,13.6-9.7,13.4l4.4-28.1C477.3,230.6,475.3,240.2,474.4,245.7L474.4,245.7z"/>
	<polygon class="st2" points="498.4,227 489.7,263.2 494.3,263.2 499.6,238.2 499.7,238.2 500.4,263.2 503.7,263.2 510.6,243.4 
		512.3,238.2 512.4,238.2 511.7,243 510.9,249.7 509.7,263.2 514.4,263.2 516.7,227 512.5,227 506.9,242.9 504,251.6 503.7,253.1 
		503.6,253.1 502.6,227 	"/>
	<path class="st2" d="M532.8,226.5c-9.3,0-11.3,12.1-12.4,18.6c-1,6.5-2.8,18.6,6.5,18.6s11.3-12.1,12.4-18.6
		C540.3,238.6,542.1,226.5,532.8,226.5L532.8,226.5z M532,231c3.8,0,3.3,6.4,2.1,14.1s-2.8,14.1-6.6,14.1s-3.3-6.4-2.1-14.1
		C526.7,237.4,528.3,231,532,231L532,231z"/>
	<path class="st2" d="M541.3,263.2h4.8l2.8-17.7h0.1l3.7,17.7h5l-3.9-17.6c4.1-0.7,5.9-5.9,6.5-9.3c1.4-9.1-4-9.3-7.5-9.3H547
		L541.3,263.2L541.3,263.2z M549.3,243l1.9-12h0.8c3.7-0.1,3.6,2.8,3.1,6.2C554.5,241,552.9,243.3,549.3,243L549.3,243z"/>
	<polygon class="st2" points="567,227 561.3,263.2 574.2,263.2 574.9,259 566.8,259 568.7,246.7 576,246.7 576.6,242.6 569.4,242.6 
		571.2,231.2 579.3,231.2 580,227 	"/>
</g>
<rect x="330.5" y="30.3" class="st1" width="6.8" height="95.3"/>
<path class="st0" d="M312,0v30.3h25.3v95.3h11c7.8,0,15.1,2.3,21.3,6.2V30.3h25.5V0H312z"/>
</svg>
