<svg xmlns="http://www.w3.org/2000/svg" width="38.12" height="38.12" viewBox="0 0 38.12 38.12">
  <metadata><?xpacket begin="﻿" id="W5M0MpCehiHzreSzNTczkc9d"?>
<x:xmpmeta xmlns:x="adobe:ns:meta/" x:xmptk="Adobe XMP Core 5.6-c138 79.159824, 2016/09/14-01:09:01        ">
   <rdf:RDF xmlns:rdf="http://www.w3.org/1999/02/22-rdf-syntax-ns#">
      <rdf:Description rdf:about=""/>
   </rdf:RDF>
</x:xmpmeta>
                                                                                                    
                                                                                                    
                                                                                                    
                                                                                                    
                                                                                                    
                                                                                                    
                                                                                                    
                                                                                                    
                                                                                                    
                                                                                                    
                                                                                                    
                                                                                                    
                                                                                                    
                                                                                                    
                                                                                                    
                                                                                                    
                                                                                                    
                                                                                                    
                                                                                                    
                                                                                                    
                           
<?xpacket end="w"?></metadata>
<defs>
    <style>
      .cls-1 {
        fill: #222;
        fill-rule: evenodd;
      }
    </style>
  </defs>
  <path id="Lab" class="cls-1" d="M1470.72,2517.56h-28.58a4.6,4.6,0,0,1-4.25-2.08c-0.75-1.31-.54-2.84.44-4.56,0.01-.03.14-0.21,0.16-0.24l12.09-17.16v-12.95c0-.65.15-1.13,0.79-1.13h11.04a0.93,0.93,0,0,1,.89,1.13v13.34l11.45,16.75,0.02,0.03a4.815,4.815,0,0,1,.25,4.79A4.688,4.688,0,0,1,1470.72,2517.56Zm-30.5-5.58a2.554,2.554,0,0,0-.33,2.33,2.5,2.5,0,0,0,2.25.9h28.58a1.936,1.936,0,0,0,1.92-3.23l-11.54-17.41a1.089,1.089,0,0,1-.11-0.67v-12.11h-8.1v12.11a1.536,1.536,0,0,1-.39.67Zm23.54-7.5c-1.59,0-3.62-.54-6.43-2.24-4.75-2.88-11.82,1.08-11.89,1.12a0.577,0.577,0,0,1-.79-0.22,0.584,0.584,0,0,1,.22-0.8c0.31-.18,7.73-4.33,13.05-1.1,4.97,3,7.1,2.07,8.99,1.25l0.42-.18a0.576,0.576,0,0,1,.76.31,0.593,0.593,0,0,1-.32.77l-0.4.17A8.391,8.391,0,0,1,1463.76,2504.48Zm-15.37,9.22a3.21,3.21,0,1,1,3.16-3.21A3.192,3.192,0,0,1,1448.39,2513.7Zm0-5.25a2.035,2.035,0,1,0,2,2.04A2.023,2.023,0,0,0,1448.39,2508.45Zm16.62,5.25a2.77,2.77,0,1,1,2.72-2.77A2.755,2.755,0,0,1,1465.01,2513.7Zm0-4.37a1.6,1.6,0,1,0,1.57,1.6A1.594,1.594,0,0,0,1465.01,2509.33Zm-9.08-.56a2.36,2.36,0,1,1,2.32-2.36A2.343,2.343,0,0,1,1455.93,2508.77Zm0-3.54a1.185,1.185,0,1,0,1.17,1.18A1.18,1.18,0,0,0,1455.93,2505.23Zm3.32-14.69a0.589,0.589,0,0,1-.58-0.59v-6.45a0.58,0.58,0,1,1,1.16,0v6.45A0.589,0.589,0,0,1,1459.25,2490.54Zm0,2.93a0.583,0.583,0,0,1-.58-0.59v-0.59a0.58,0.58,0,0,1,1.16,0v0.59A0.583,0.583,0,0,1,1459.25,2493.47Z" transform="translate(-1437.44 -2479.44)"/>
</svg>
