<?xml version="1.0" encoding="utf-8"?>
<!-- Generator: Adobe Illustrator 21.1.0, SVG Export Plug-In . SVG Version: 6.00 Build 0)  -->
<svg version="1.1" id="Ebene_1" xmlns="http://www.w3.org/2000/svg" xmlns:xlink="http://www.w3.org/1999/xlink" x="0px" y="0px"
	 viewBox="0 0 60 93" style="enable-background:new 0 0 60 93;" xml:space="preserve">
<style type="text/css">
	.st0{opacity:0.7;fill:#3775B2;enable-background:new    ;}
</style>
<path id="Nature" class="st0" d="M30,72.4c-11,0-20-8.9-20-19.9c0-5.4,5.8-17.5,12-29.6c0.4-0.8,0.7-1.4,1-2
	c1.8-3.5,4.2-5.4,6.9-5.4c1.6,0,4.5,0.7,6.9,5.4c0.3,0.6,0.7,1.4,1.2,2.2c6.2,12,12,23.9,12,29.4C50,63.6,41,72.5,30,72.4z
	 M29.9,19.2c-1.2,0-2.5,1.3-3.6,3.4c-0.3,0.6-0.6,1.2-1,2c-3.2,6.2-11.6,22.7-11.6,28c0,9,7.3,16.3,16.3,16.3
	c9,0,16.2-7.3,16.3-16.3c0-5.3-8.1-21-11.6-27.7c-0.5-0.9-0.8-1.6-1.2-2.3C32.4,20.4,31.1,19.2,29.9,19.2z M30.4,77.5
	c-1,0-1.9-0.8-1.9-1.9V71c0-1,0.8-1.9,1.9-1.9s1.9,0.8,1.9,1.9v4.6C32.2,76.7,31.4,77.5,30.4,77.5z M30.4,35.8
	c-0.5,0-0.9-0.4-0.9-0.9c0,0,0,0,0,0V34c0-0.5,0.5-0.9,1-0.9c0.5,0,0.8,0.4,0.9,0.9v0.9C31.3,35.4,30.9,35.8,30.4,35.8z M30.4,71
	c-0.5,0-0.9-0.4-0.9-0.9c0,0,0,0,0,0V37.7c0-0.5,0.5-0.9,1-0.9c0.5,0,0.8,0.4,0.9,0.9v32.4C31.3,70.6,30.9,71,30.4,71z M30,64.1
	c-0.2,0-0.5-0.1-0.7-0.3c-0.4-0.4-0.4-0.9,0-1.3c0,0,0,0,0,0l7.4-7.4c0.4-0.4,1-0.4,1.3,0c0.4,0.4,0.4,0.9,0,1.3c0,0,0,0,0,0
	l-7.4,7.4C30.5,64,30.3,64.1,30,64.1L30,64.1z M22,48.1c-0.2,0-0.5-0.1-0.7-0.3c-0.2-0.2-0.3-0.4-0.3-0.7c0-0.2,0.1-0.5,0.3-0.7
	c0.4-0.3,0.9-0.3,1.3,0c0.2,0.2,0.3,0.4,0.3,0.6c0,0.2-0.1,0.5-0.3,0.7C22.5,48,22.3,48.1,22,48.1z M30,56c-0.2,0-0.5-0.1-0.7-0.3
	l-6.1-6.1c-0.4-0.4-0.4-0.9,0-1.3c0,0,0,0,0,0c0.4-0.4,1-0.4,1.3,0l6.1,6.1c0.4,0.4,0.4,0.9,0,1.3C30.5,55.9,30.2,56,30,56z
	 M30,43.5c-0.2,0-0.5-0.1-0.7-0.3c-0.4-0.4-0.4-0.9,0-1.3c0,0,0,0,0,0l5.8-5.8c0.4-0.4,1-0.4,1.3,0c0.4,0.4,0.4,0.9,0,1.3
	c0,0,0,0,0,0l-5.8,5.8C30.5,43.4,30.3,43.5,30,43.5z"/>
</svg>
