<svg xmlns="http://www.w3.org/2000/svg" width="92" height="92" viewBox="0 0 92 92">
  <metadata><?xpacket begin="﻿" id="W5M0MpCehiHzreSzNTczkc9d"?>
<x:xmpmeta xmlns:x="adobe:ns:meta/" x:xmptk="Adobe XMP Core 5.6-c138 79.159824, 2016/09/14-01:09:01        ">
   <rdf:RDF xmlns:rdf="http://www.w3.org/1999/02/22-rdf-syntax-ns#">
      <rdf:Description rdf:about=""/>
   </rdf:RDF>
</x:xmpmeta>
                                                                                                    
                                                                                                    
                                                                                                    
                                                                                                    
                                                                                                    
                                                                                                    
                                                                                                    
                                                                                                    
                                                                                                    
                                                                                                    
                                                                                                    
                                                                                                    
                                                                                                    
                                                                                                    
                                                                                                    
                                                                                                    
                                                                                                    
                                                                                                    
                                                                                                    
                                                                                                    
                           
<?xpacket end="w"?></metadata>
<defs>
    <style>
      .cls-1 {
        fill: #3775b2;
        fill-rule: evenodd;
        opacity: 0.7;
      }
    </style>
  </defs>
  <path id="Plus" class="cls-1" d="M125.531,1328a11.865,11.865,0,0,1-11.848-11.85v-23H90.849a11.85,11.85,0,0,1,0-23.7h22.835v-21.6a11.848,11.848,0,1,1,23.7,0v21.6h21.772a11.85,11.85,0,0,1,0,23.7H137.379v23A11.865,11.865,0,0,1,125.531,1328Zm-34.683-52.97a6.275,6.275,0,0,0,0,12.55H115.9c1.539,0,3.355,1.24,3.355,2.78v25.79a6.273,6.273,0,0,0,12.546,0v-25.79c0-1.54.68-2.78,2.22-2.78h25.127a6.275,6.275,0,0,0,0-12.55H134.024c-1.54,0-2.22-1.25-2.22-2.79v-24.39a6.273,6.273,0,0,0-12.546,0v24.39c0,1.54-1.816,2.79-3.355,2.79H90.849Z" transform="translate(-79 -1236)"/>
</svg>
