<svg xmlns="http://www.w3.org/2000/svg" width="93" height="93" viewBox="0 0 93 93">
  <defs>
    <style>
      .cls-1 {
        fill: #3775b2;
        fill-rule: evenodd;
        opacity: 0.7;
      }
    </style>
  </defs>
  <path id="Share" class="cls-1" d="M1393.24,1273.91a18.456,18.456,0,1,1,18.6-18.46A18.546,18.546,0,0,1,1393.24,1273.91Zm0-31.02a12.565,12.565,0,1,0,12.67,12.56A12.622,12.622,0,0,0,1393.24,1242.89Zm-6.86,9.47a1.476,1.476,0,0,1-1.24-2.29,9.789,9.789,0,0,1,8.1-4.29,1.475,1.475,0,1,1,0,2.95,6.776,6.776,0,0,0-5.63,2.98A1.5,1.5,0,0,1,1386.38,1252.36Zm-43.55,48.76a20.656,20.656,0,1,1,20.82-20.65A20.759,20.759,0,0,1,1342.83,1301.12Zm0-35.43a14.775,14.775,0,1,0,14.89,14.78A14.846,14.846,0,0,0,1342.83,1265.69Zm-9.44,16.25a1.483,1.483,0,0,1-1.49-1.47v-0.35a4,4,0,0,1,.09-1.12,1.479,1.479,0,0,1,1.73-1.17,1.461,1.461,0,0,1,1.18,1.72,1.319,1.319,0,0,0-.04.47c0.01,0.11.01,0.25,0.01,0.45A1.481,1.481,0,0,1,1333.39,1281.94Zm1.59-5.21a1.476,1.476,0,0,1-1.23-2.29,10.95,10.95,0,0,1,9.08-4.81,1.47,1.47,0,1,1,0,2.94,7.994,7.994,0,0,0-6.62,3.5A1.46,1.46,0,0,1,1334.98,1276.73Zm56.78,53.27a23.051,23.051,0,1,1,23.24-23.05A23.166,23.166,0,0,1,1391.76,1330Zm0-40.22a17.166,17.166,0,1,0,17.3,17.17A17.253,17.253,0,0,0,1391.76,1289.78Zm-10.38,11.26a1.577,1.577,0,0,1-.83-0.25,1.46,1.46,0,0,1-.4-2.04,12.172,12.172,0,0,1,10.13-5.37,1.47,1.47,0,1,1,0,2.94,9.24,9.24,0,0,0-7.67,4.06A1.486,1.486,0,0,1,1381.38,1301.04Zm-23.54-25.16-2.34-5.4,24.44-10.43,2.35,5.4Zm13.77,26.32-16.25-7.9,2.61-5.29,16.25,7.9Z" transform="translate(-1322 -1237)"/>
</svg>
